<?xml version="1.0" encoding="UTF-8"?>
<svg width="16px" height="16px" viewBox="0 0 16 16" version="1.1" xmlns="http://www.w3.org/2000/svg" xmlns:xlink="http://www.w3.org/1999/xlink">
    <!-- Generator: Sketch 48.2 (47327) - http://www.bohemiancoding.com/sketch -->
    <title>icon_telephone</title>
    <desc>Created with Sketch.</desc>
    <defs></defs>
    <g id="详情" stroke="none" stroke-width="1" fill="none" fill-rule="evenodd" transform="translate(-16.000000, -496.000000)">
        <g id="icon_telephone" transform="translate(17.000000, 497.000000)" fill-rule="nonzero" stroke="#333333" stroke-width="1.39999998">
            <path d="M12.6409229,9.68583452 C11.3469936,8.8564299 11.1498306,8.74072785 10.6945983,8.81397506 C10.2393234,8.88710694 10.1040721,8.98657668 9.44888705,9.92355277 C9.3563027,10.0386349 8.47724703,11.4234123 5.3225678,8.33846646 C3.00964426,5.91065524 3.69453903,5.02965609 4.13216929,4.45864214 C4.51273089,4.09686061 4.93961299,3.93638277 5.00278503,3.28995921 C5.03007319,2.99231404 4.99237672,2.38234831 4.03215044,1.04253419 C3.38864816,0.0856929809 3.26067558,0.00907245111 2.83114538,0.000249917848 C2.40161518,-0.00842845637 1.71704612,0.208040758 1.01331728,0.785613953 C0.317348647,1.2616271 0.102668514,1.81955142 0.0283942861,2.47342799 C-0.0500149419,3.2977438 -0.204468518,6.0881871 3.26908718,9.98483478 C6.74268537,13.8815401 11.2324456,14.7193348 12.7970191,13.6137215 C13.4710666,13.1267811 14.0217721,12.0440025 14.0455201,11.3471233 C14.1300043,10.8663673 13.9348522,10.515095 12.6409229,9.68583452 Z" id="Shape"></path>
        </g>
    </g>
</svg>