<?xml version="1.0" encoding="UTF-8"?>
<svg width="16px" height="16px" viewBox="0 0 16 16" version="1.1" xmlns="http://www.w3.org/2000/svg" xmlns:xlink="http://www.w3.org/1999/xlink">
    <!-- Generator: Sketch 48.2 (47327) - http://www.bohemiancoding.com/sketch -->
    <title>icon_cuisine</title>
    <desc>Created with Sketch.</desc>
    <defs></defs>
    <g id="首页" stroke="none" stroke-width="1" fill="none" fill-rule="evenodd" transform="translate(-230.000000, -416.000000)">
        <g id="icon_cuisine" transform="translate(231.000000, 417.000000)" stroke="#F5A623">
            <path d="M0.00578581839,4.71276855 L13.9942142,4.71276855 C13.9980591,4.80803436 14,4.90379051 14,5 C14,8.86599325 10.8659932,12 7,12 C5.95289927,12 4.9594965,11.7700917 4.0675181,11.3580015 C1.66622934,10.2486163 0,7.81889252 0,5 C0,4.90379051 0.00194094643,4.80803436 0.00578581839,4.71276855 Z" id="Combined-Shape" stroke-width="1.4"></path>
            <path d="M4.27767702,11.4601527 C5.14877877,11.8365867 6.0619523,12.0243652 7.02307129,12.0243652 C7.98204455,12.0243652 8.87706987,11.8374658 9.71462981,11.4635322 L10.7,11.0236078 L10.7,12.1027222 C10.7,12.9848744 9.98487436,13.7 9.10272217,13.7 L4.89727783,13.7 C4.01512564,13.7 3.3,12.9848744 3.3,12.1027222 L3.3,11.0376639 L4.27767702,11.4601527 Z" id="Rectangle-6" stroke-width="1.4"></path>
            <path d="M7.52064315,-2.84217094e-14 C7.17080211,0.368053881 6.99726526,0.733726577 7.00003258,1.09701809 C7.00418356,1.64195536 7.92232322,1.93069006 7.8800411,2.2262787 C7.85185303,2.4233378 7.70541564,2.79177957 7.44072893,3.331604" id="Path-5-Copy-2" stroke-linecap="round"></path>
            <path d="M4.36436913,1 C4.11953488,1.2575804 3.9980861,1.51349435 4.0000228,1.76774183 C4.00292784,2.14911306 4.64548263,2.35118239 4.61589173,2.55804841 C4.59616447,2.6959591 4.4936811,2.95381096 4.30844162,3.331604" id="Path-5-Copy" stroke-linecap="round"></path>
            <path d="M10.3643691,1 C10.1195349,1.2575804 9.9980861,1.51349435 10.0000228,1.76774183 C10.0029278,2.14911306 10.6454826,2.35118239 10.6158917,2.55804841 C10.5961645,2.6959591 10.4936811,2.95381096 10.3084416,3.331604" id="Path-5-Copy-3" stroke-linecap="round"></path>
        </g>
    </g>
</svg>