<?xml version="1.0" encoding="UTF-8"?>
<svg width="14px" height="14px" viewBox="0 0 14 14" version="1.1" xmlns="http://www.w3.org/2000/svg" xmlns:xlink="http://www.w3.org/1999/xlink">
    <!-- Generator: Sketch 48.2 (47327) - http://www.bohemiancoding.com/sketch -->
    <title>icon_per person</title>
    <desc>Created with Sketch.</desc>
    <defs></defs>
    <g id="首页" stroke="none" stroke-width="1" fill="none" fill-rule="evenodd" transform="translate(-144.000000, -369.000000)">
        <g id="icon_per-person" transform="translate(144.000000, 369.000000)">
            <path d="M4.3487296,3.5 L4.65671223,3.5 C4.97500696,3.5 5.27429028,3.65152556 5.46269943,3.90806704 L7.0999999,6.13744656 L8.73730038,3.90806704 C8.92570953,3.65152556 9.22499285,3.5 9.54328758,3.5 L9.85127021,3.5 C10.0749665,3.5 10.2563083,3.68134171 10.2563083,3.90503805 C10.2563083,3.99324885 10.2275114,4.07904828 10.1742938,4.14939763 L8.25972819,6.6802981 L9.51815676,6.6802981 C9.72938557,6.6802981 9.90062035,6.85153287 9.90062035,7.06276168 L9.90062035,7.06276168 C9.90062035,7.27399048 9.72938557,7.44522526 9.51815676,7.44522526 L7.82791447,7.44522526 L7.81557693,8.51859081 L9.51815676,8.51859081 C9.72938557,8.51859081 9.90062035,8.68982559 9.90062035,8.90105439 L9.90062035,8.90105439 C9.90062035,9.1122832 9.72938557,9.28351798 9.51815676,9.28351798 L7.81557693,9.28351798 L7.81557693,10.4432463 C7.81557693,10.8384485 7.49520219,11.1588233 7.0999999,11.1588233 L7.0999999,11.1588233 C6.70479762,11.1588233 6.38442288,10.8384485 6.38442288,10.4432463 L6.38442288,9.28351798 L4.69418058,9.28351798 C4.48295178,9.28351798 4.311717,9.1122832 4.311717,8.90105439 L4.311717,8.90105439 C4.311717,8.68982559 4.48295178,8.51859081 4.69418058,8.51859081 L6.38442288,8.51859081 L6.38442288,7.4575628 L4.69417381,7.44750179 C4.4825815,7.44624231 4.311717,7.27435774 4.311717,7.06276168 L4.311717,7.06276168 C4.311717,6.85153287 4.48295178,6.6802981 4.69418058,6.6802981 L5.94027162,6.6802981 L4.02570605,4.14939763 C3.89074998,3.97099665 3.92596904,3.71697057 4.10437002,3.5820145 C4.17471938,3.52879689 4.2605188,3.5 4.3487296,3.5 Z" id="¥" fill="#5BC4FF"></path>
            <circle id="Oval-3" stroke="#5BC4FF" stroke-width="1.4" cx="7" cy="7" r="6.3"></circle>
        </g>
    </g>
</svg>